/* XPM */
const char *logo_xpm[] = {
/* columns rows colors chars-per-pixel */
"142 53 155 2 ",
"   c black",
".  c #040404",
"X  c #070707",
"o  c gray3",
"O  c #0B0B0B",
"+  c #160000",
"@  c #121C00",
"#  c gray8",
"$  c #161616",
"%  c gray9",
"&  c #181818",
"*  c #191919",
"=  c gray11",
"-  c #380001",
";  c #182600",
":  c #3B2500",
">  c #253900",
",  c #202020",
"<  c #232323",
"1  c #252525",
"2  c #282828",
"3  c #2A2A2A",
"4  c #2D2D2D",
"5  c gray18",
"6  c gray19",
"7  c #313131",
"8  c gray20",
"9  c #343434",
"0  c #353535",
"q  c gray22",
"w  c #393939",
"e  c #3A3A3A",
"r  c gray23",
"t  c #3C3C3C",
"y  c #410001",
"u  c #560001",
"i  c #6C0002",
"p  c #593800",
"a  c #497100",
"s  c gray25",
"d  c #434343",
"f  c gray27",
"g  c #464646",
"h  c gray28",
"j  c #484848",
"k  c #494949",
"l  c gray29",
"z  c #4C4C4C",
"x  c #505050",
"c  c #515151",
"v  c gray32",
"b  c gray33",
"n  c #555555",
"m  c #585858",
"M  c gray35",
"N  c #5B5B5B",
"B  c gray36",
"V  c #5D5D5D",
"C  c gray37",
"Z  c #606060",
"A  c gray38",
"S  c #626262",
"D  c gray39",
"F  c #656565",
"G  c gray40",
"H  c #676767",
"J  c #6A6A6A",
"K  c gray44",
"L  c #727272",
"P  c #747474",
"I  c gray46",
"U  c #777777",
"Y  c gray47",
"T  c #797979",
"R  c #7C7C7C",
"E  c gray50",
"W  c #820002",
"Q  c #970003",
"!  c #9F0003",
"~  c #AD0003",
"^  c #8A5700",
"/  c #B27000",
"(  c #5C8E00",
")  c #6EAA00",
"_  c #73B200",
"`  c #ED9500",
"'  c #88D300",
"]  c #93E300",
"[  c #808080",
"{  c #848484",
"}  c #868686",
"|  c gray53",
" . c #898989",
".. c #8B8B8B",
"X. c #8E8E8E",
"o. c gray57",
"O. c #929292",
"+. c #959595",
"@. c #979797",
"#. c gray60",
"$. c #9A9A9A",
"%. c gray61",
"&. c #9D9D9D",
"*. c #9F9F9F",
"=. c gray63",
"-. c #A2A2A2",
";. c #A4A4A4",
":. c gray65",
">. c #A7A7A7",
",. c gray66",
"<. c #AAAAAA",
"1. c #ACACAC",
"2. c #AEAEAE",
"3. c #B2B2B2",
"4. c #B4B4B4",
"5. c gray71",
"6. c #B7B7B7",
"7. c gray72",
"8. c #B9B9B9",
"9. c #BBBBBB",
"0. c gray75",
"q. c #C5C5C5",
"w. c #C6C6C6",
"e. c #C8C8C8",
"r. c #CACACA",
"t. c #CBCBCB",
"y. c gray80",
"u. c gray81",
"i. c #D0D0D0",
"p. c gray82",
"a. c #D2D2D2",
"s. c LightGray",
"d. c gray83",
"f. c #D7D7D7",
"g. c gray85",
"h. c gainsboro",
"j. c gray87",
"k. c #DFDFDF",
"l. c #E1E1E1",
"z. c #E2E2E2",
"x. c gray89",
"c. c gray90",
"v. c gray91",
"b. c #EAEAEA",
"n. c gray92",
"m. c #ECECEC",
"M. c #EEEEEE",
"N. c #EFEFEF",
"B. c gray94",
"V. c gray95",
"C. c #F3F3F3",
"Z. c #F4F4F4",
"A. c gray97",
"S. c #F9F9F9",
"D. c white",
/* pixels */
"                                                                                                                                                                                                                                                                                            ",
"                                                                                                                                                                                                                                                                                            ",
"                                                                                                                                                                                                                                                                                            ",
"                                                                                                                                                                                                                                                                                            ",
"                                                                                                                                                                                                                                                                                            ",
"                  b X.1.r.v.D.D.D.D.D.D.D.D.D.D.D.D.D.D.D.D.D.D.D.D.D.D.D.D.D.D.D.D.e.,           *.D.D.D.D.D.D.D.D.D.D.D.D.D.D.D.D.D.D.D.D.D.D.D.D.D.D.D.D.D.M.y.<.X.b                             g P -.p.D.D.D.D.D.D.D.D.D.D.D.D.D.D.D.D.D.D.D.D.D.D.D.D.D.D.D.D.D.0.                    ",
"              U u.D.D.D.D.D.D.D.D.D.D.D.D.D.D.D.D.D.D.D.D.D.D.D.D.D.D.D.D.D.D.D.D.D.D.s           D.D.D.D.D.D.D.D.D.D.D.D.D.D.D.D.D.D.D.D.D.D.D.D.D.D.D.D.D.D.D.D.D.D.D.u.U                     9 3.D.D.D.D.D.D.D.D.D.D.D.D.D.D.D.D.D.D.D.D.D.D.D.D.D.D.D.D.D.D.D.D.D.D.                    ",
"            <.D.D.D.D.D.D.D.D.D.D.D.D.D.D.D.D.D.D.D.D.D.D.D.D.D.D.D.D.D.D.D.D.D.D.D.D.s           D.D.D.D.D.D.D.D.D.D.D.D.D.D.D.D.D.D.D.D.D.D.D.D.D.D.D.D.D.D.D.D.D.D.D.D.D.X.                [ D.D.D.D.D.D.D.D.D.D.D.D.D.D.D.D.D.D.D.D.D.D.D.D.D.D.D.D.D.D.D.D.D.D.D.D.                    ",
"           .D.D.D.D.D.D.D.D.D.D.D.D.D.D.D.D.D.D.D.D.D.D.D.D.D.D.D.D.D.D.D.D.D.D.D.D.D.0           D.D.D.D.D.D.D.D.D.D.D.D.D.D.D.D.D.D.D.D.D.D.D.D.D.D.D.D.D.D.D.D.D.D.D.D.D.D.m             z D.D.D.D.D.D.D.D.D.D.D.D.D.D.D.D.D.D.D.D.D.D.D.D.D.D.D.D.D.D.D.D.D.D.D.D.b.                    ",
"        = D.D.D.D.D.D.D.6.=.| [ [ [ [ [ [ [ [ [ [ [ [ [ [ [ [ [ [ [ [ [ [ [ [ [ [ [ N O           D.D.D.D.D.[ [ [ [ [ [ [ [ [ [ [ [ [ [ [ [ [ [ [ [ [ [ [ [ } *.9.D.D.D.D.D.D.q.            3.D.D.D.D.D.D.6.=.| [ [ [ [ [ [ [ [ [ [ [ [ [ [ [ [ [ [ [ [ [ [ [ [ [ [ [ n                     ",
"        n D.D.D.D.D.8.8                                                                           D.D.D.D.D.                                                      t 9.D.D.D.D.C..         d D.D.D.D.D.c.x                                                                                   ",
"        X.D.D.D.D.V.5                                                                             D.D.D.D.D.                                                        s D.D.D.D.D.7         Z D.D.D.D.D.h                                                                                     ",
"        <.D.D.D.D.@.                                                                              D.D.D.D.D.                                                          g.D.D.D.D.C         R D.D.D.D.%.                                                                                      ",
"        0.D.D.D.D.B                                                                               D.D.D.D.D.                                                          ;.D.D.D.D.[         &.D.D.D.D.n                                                                                       ",
"        0.D.D.D.D.s                                                                               D.D.D.D.D.                                                          [ D.D.D.D.S         0.D.D.D.D.=                                                                                       ",
"        0.D.D.D.D.J                                                                               D.D.D.D.D.                                                          3.D.D.D.D.r         0.D.D.D.D.                                                                                        ",
"        *.D.D.D.D.>.                                                                              D.D.D.D.D.                                                          c.D.D.D.D.#         0.D.D.D.D.                                                                                        ",
"        [ D.D.D.D.D.K                                                                             D.D.D.D.D.                                                        [ D.D.D.D.2.          0.D.D.D.D.                                                                                        ",
"        w D.D.D.D.D.D.G                                                                           D.D.D.D.D.                                                    1 9.D.D.D.D.D.C           0.D.D.D.D.                                                                                        ",
"          y.D.D.D.D.D.D.Z.j.w.0.0.0.0.0.0.0.0.0.0.0.0.0.0.0.0.0.0.0.0.2.&.X.[ *                   D.D.D.D.D.0.0.0.0.0.0.0.0.0.0.0.0.0.0.0.0.0.0.0.0.0.0.0.0.t.z.S.D.D.D.D.D.[             0.D.D.D.D.                                  l 0.0.0.0.0.0.0.0.0.0.0.0.0.0.0.0.0.M                 ",
"          G D.D.D.D.D.D.D.D.D.D.D.D.D.D.D.D.D.D.D.D.D.D.D.D.D.D.D.D.D.D.D.D.D.c.[ *               D.D.D.D.D.D.D.D.D.D.D.D.D.D.D.D.D.D.D.D.D.D.D.D.D.D.D.D.D.D.D.D.D.D.D.0.Z               0.D.D.D.D.                                  [ D.D.D.D.D.D.D.D.D.D.D.D.D.D.D.D.D.[                 ",
"            A c.D.D.D.D.D.D.D.D.D.D.D.D.D.D.D.D.D.D.D.D.D.D.D.D.D.D.D.D.D.D.D.D.D.h.j             D.D.D.D.D.D.D.D.D.D.D.D.D.D.D.D.D.D.D.D.D.D.D.D.D.D.D.D.D.D.D.D.D.D.6.c                 0.D.D.D.D.                                  [ D.D.D.D.D.D.D.D.D.D.D.D.D.D.D.D.D.[                 ",
"              * [ c.D.D.D.D.D.D.D.D.D.D.D.D.D.D.D.D.D.D.D.D.D.D.D.D.D.D.D.D.D.D.D.D.c.*           D.D.D.D.D.D.D.D.D.D.D.D.D.D.D.D.D.D.D.D.D.D.D.D.D.D.D.D.D.D.D.D.D.D.D.D.r.e             0.D.D.D.D.                                  [ D.D.D.D.D.D.D.D.D.D.D.D.D.D.D.D.D.[                 ",
"                  * k M H I [ [ [ [ [ [ [ [ [ [ [ [ [ [ [ [ [ [ [ [ o.,.r.D.D.D.D.D.D.[           D.D.D.D.D.[ [ [ [ [ [ [ [ [ [ [ [ [ [ [ [ [ [ [ [ [ [ [ [ [ #.4.A.D.D.D.D.B.c           0.D.D.D.D.                                  s [ [ [ [ [ [ [ [ [ [ [ [ [ D.D.D.D.[                 ",
"                                                                          v v.D.D.D.D.e.          D.D.D.D.D.                                                      1 [ D.D.D.D.q.          0.D.D.D.D.                                                            E D.D.D.D.[                 ",
"                                                                            m D.D.D.D.D.o         D.D.D.D.D.                                                          9.D.D.D.D.c         0.D.D.D.D.                                                            [ D.D.D.D.[                 ",
"                                                                              n.D.D.D.D.2         D.D.D.D.D.                                                          L D.D.D.D...        0.D.D.D.D.                                                            [ D.D.D.D.[                 ",
"                                                                              i.D.D.D.D.s         D.D.D.D.D.                                                          v D.D.D.D.=.        0.D.D.D.D.                                                            [ D.D.D.D.[                 ",
"                                                                              0.D.D.D.D.s         D.D.D.D.D.                                                          s D.D.D.D.5.        6.D.D.D.D.8                                                           [ D.D.D.D.[                 ",
"                                                                              f.D.D.D.D.s         D.D.D.D.D.                                                          N D.D.D.D.0.        +.D.D.D.D.G                                                           $.D.D.D.D.[                 ",
"                                                                              V.D.D.D.D.<         D.D.D.D.D.                                                          T D.D.D.D.*.        I D.D.D.D.7.                                                          5.D.D.D.D.[                 ",
"                                                                            Y D.D.D.D.D.X         D.D.D.D.D.                                                        # l.D.D.D.D.[         M D.D.D.D.D.D                                                       f D.D.D.D.D.[                 ",
"                                                                        4 | D.D.D.D.D.0.          D.D.D.D.D.                                                      z 3.D.D.D.D.D.V         8 D.D.D.D.D.D.[                                                 $ K g.D.D.D.D.D.k                 ",
"          *.0.0.0.0.0.0.0.0.0.0.0.0.0.0.0.0.0.0.0.0.0.0.0.0.0.0.0.0.p.v.D.D.D.D.D.D.D.G           D.D.D.D.D.0.0.0.0.0.0.0.0.0.0.0.0.0.0.0.0.0.0.0.0.0.0.0.0.0.a.m.D.D.D.D.D.D.N.6           #.D.D.D.D.D.D.Z.j.w.0.0.0.0.0.0.0.0.0.0.0.0.0.0.0.0.0.0.0.w.k.S.D.D.D.D.D.D.0.                  ",
"          D.D.D.D.D.D.D.D.D.D.D.D.D.D.D.D.D.D.D.D.D.D.D.D.D.D.D.D.D.D.D.D.D.D.D.D.D.y.            D.D.D.D.D.D.D.D.D.D.D.D.D.D.D.D.D.D.D.D.D.D.D.D.D.D.D.D.D.D.D.D.D.D.D.D.D.D.K             % D.D.D.D.D.D.D.D.D.D.D.D.D.D.D.D.D.D.D.D.D.D.D.D.D.D.D.D.D.D.D.D.D.D.D.D.D.s                   ",
"          D.D.D.D.D.D.D.D.D.D.D.D.D.D.D.D.D.D.D.D.D.D.D.D.D.D.D.D.D.D.D.D.D.D.D.D.2.&             D.D.D.D.D.D.D.D.D.D.D.D.D.D.D.D.D.D.D.D.D.D.D.D.D.D.D.D.D.D.D.D.D.D.D.D.D.[                 3 d.D.D.D.D.D.D.D.D.D.D.D.D.D.D.D.D.D.D.D.D.D.D.D.D.D.D.D.D.D.D.D.D.D.x.n                     ",
"          D.D.D.D.D.D.D.D.D.D.D.D.D.D.D.D.D.D.D.D.D.D.D.D.D.D.D.D.D.D.D.D.D.D.3.z                 D.D.D.D.D.D.D.D.D.D.D.D.D.D.D.D.D.D.D.D.D.D.D.D.D.D.D.D.D.D.D.D.D.D.D.#.8                     X [ c.D.D.D.D.D.D.D.D.D.D.D.D.D.D.D.D.D.D.D.D.D.D.D.D.D.D.D.D.D.s.P #                       ",
"          *.0.0.0.0.0.0.0.0.0.0.0.0.0.0.0.0.0.0.0.0.0.0.0.0.0.0.0.0.0.&.R Z d                     [ 0.0.0.0.0.0.0.0.0.0.0.0.0.0.0.0.0.0.0.0.0.0.0.0.0.0.0.0.0.6.+.I M 8                             O q F O.0.0.0.0.0.0.0.0.0.0.0.0.0.0.0.0.0.0.0.0.0.0.:.{ H l .                           ",
"                                                                                                                                                                                                                                                                                            ",
"                                                                                                                                                                                                                                                                                            ",
"                                                                                                                                                                                                                                                                                            ",
"          ( ] ] ] ] ] ] ] ] ] ] ] ] ] ] ] ] ] ] ] ] ] ] ] ] ] ] ] ] ] ] ] ] ] ] ] ] ] _ @         / ` ` ` ` ` ` ` ` ` ` ` ` ` ` ` ` ` ` ` ` ` ` ` ` ` ` ` ` ` ` ` ` ` ` ` ` ` ` ^         - ! ~ ~ ~ ~ ~ ~ ~ ~ ~ ~ ~ ~ ~ ~ ~ ~ ~ ~ ~ ~ ~ ~ ~ ~ ~ ~ ~ ~ ~ ~ ~ ~ ~ ~ ~ ~ ~ Q y                 ",
"          ] ] ] ] ] ] ] ] ] ] ] ] ] ] ] ] ] ] ] ] ] ] ] ] ] ] ] ] ] ] ] ] ] ] ] ] ] ] ] >         ` ` ` ` ` ` ` ` ` ` ` ` ` ` ` ` ` ` ` ` ` ` ` ` ` ` ` ` ` ` ` ` ` ` ` ` ` ` ` /         u ~ ~ ~ ~ ~ ~ ~ ~ ~ ~ ~ ~ ~ ~ ~ ~ ~ ~ ~ ~ ~ ~ ~ ~ ~ ~ ~ ~ ~ ~ ~ ~ ~ ~ ~ ~ ~ ~ ~ u                 ",
"          ] ] ] ] ] ] ] ] ] ] ] ] ] ] ] ] ] ] ] ] ] ] ] ] ] ] ] ] ] ] ] ] ] ] ] ] ] ] ] >         ` ` ` ` ` ` ` ` ` ` ` ` ` ` ` ` ` ` ` ` ` ` ` ` ` ` ` ` ` ` ` ` ` ` ` ` ` ` ` /         u ~ ~ ~ ~ ~ ~ ~ ~ ~ ~ ~ ~ ~ ~ ~ ~ ~ ~ ~ ~ ~ ~ ~ ~ ~ ~ ~ ~ ~ ~ ~ ~ ~ ~ ~ ~ ~ ~ ~ u                 ",
"          ' ] ] ] ] ] ] ] ] ] ] ] ] ] ] ] ] ] ] ] ] ] ] ] ] ] ] ] ] ] ] ] ] ] ] ] ] ] ] >         ` ` ` ` ` ` ` ` ` ` ` ` ` ` ` ` ` ` ` ` ` ` ` ` ` ` ` ` ` ` ` ` ` ` ` ` ` ` ` /         u ~ ~ ~ ~ ~ ~ ~ ~ ~ ~ ~ ~ ~ ~ ~ ~ ~ ~ ~ ~ ~ ~ ~ ~ ~ ~ ~ ~ ~ ~ ~ ~ ~ ~ ~ ~ ~ ~ ~ u                 ",
"          ; ) ) ) ) ) ) ) ) ) ) ) ) ) ) ) ) ) ) ) ) ) ) ) ) ) ) ) ) ) ) ) ) ) ) ) ) ) a           p / / / / / / / / / / / / / / / / / / / / / / / / / / / / / / / / / / / / / / :         + i W W W W W W W W W W W W W W W W W W W W W W W W W W W W W W W W W W W W W i +                 ",
"                                                                                                                                                                                                                                                                                            ",
"                                                                                                                                                                                                                                                                                            ",
"                                                                                                                                                                                                                                                                                            ",
"                                                                                                                                                                                                                                                                                            ",
"                                                                                                                                                                                                                                                                                            ",
"                                                                                                                                                                                                                                                                                            ",
"                                                                                                                                                                                                                                                                                            "
};
